<mxfile host="app.diagrams.net" modified="2024-05-18T12:10:56.090Z" agent="Mozilla/5.0 (Macintosh; Intel Mac OS X 10_15_7) AppleWebKit/537.36 (KHTML, like Gecko) Chrome/124.0.0.0 Safari/537.36" version="24.4.4" etag="IZfMVfu6YA6w0o5I0uq9" type="github">
  <diagram name="第 1 页" id="jT26UlKxzPeDTNE08l-G">
    <mxGraphModel>
      <root>
        <mxCell id="0" />
        <mxCell id="1" parent="0" />
      </root>
    </mxGraphModel>
  </diagram>
</mxfile>
